<svg width="43" height="107" viewBox="0 0 43 107" version="1.1" xmlns="http://www.w3.org/2000/svg" xmlns:xlink="http://www.w3.org/1999/xlink">
<g id="Canvas" fill="none">
<g id="left-lines">
<g id="Layer 2">
<g id="Capa 1">
<g id="Vector">
<path d="M 24.4806 86.6857C 23.9876 86.6818 23.5066 86.5329 23.0978 86.2575C 22.6889 85.9821 22.3702 85.5923 22.1814 85.1369C 21.9926 84.6815 21.9421 84.1805 22.0362 83.6966C 22.1303 83.2127 22.3649 82.7671 22.7106 82.4157L 38.4206 66.7057C 41.6955 63.4198 43.5344 58.9698 43.5344 54.3307C 43.5344 49.6915 41.6955 45.2415 38.4206 41.9557L 0.760575 4.29566C 0.522148 4.0647 0.332104 3.78857 0.201531 3.48338C 0.0709581 3.17819 0.00247101 2.85005 6.56402e-05 2.51812C -0.00233973 2.18618 0.0613848 1.85708 0.187521 1.55003C 0.313658 1.24298 0.49968 0.964126 0.734735 0.729735C 0.96979 0.495344 1.24917 0.310111 1.55658 0.184844C 1.86398 0.0595767 2.19326 -0.0032175 2.52519 0.00012686C 2.85712 0.00347122 3.18506 0.0728861 3.48988 0.204322C 3.7947 0.335758 4.07029 0.526583 4.30058 0.765662L 41.9506 38.4157C 46.1708 42.6369 48.5416 48.3616 48.5416 54.3307C 48.5416 60.2997 46.1708 66.0244 41.9506 70.2457L 26.2506 85.9457C 26.0188 86.1795 25.7431 86.3652 25.4394 86.4922C 25.1356 86.6192 24.8098 86.6849 24.4806 86.6857Z" transform="translate(-6 16.2924)" fill="#43AFA8"/>
</g>
<g id="Vector_2">
<path d="M 33.1807 33.938C 33.0822 33.9385 32.9845 33.9193 32.8935 33.8815C 32.8025 33.8437 32.7199 33.7881 32.6507 33.718L 0.120697 1.15802C 0.0293058 1.01706 -0.0121153 0.8495 0.0030722 0.682196C 0.0182597 0.514893 0.0891764 0.357532 0.204456 0.235336C 0.319735 0.11314 0.472701 0.0331845 0.638838 0.00828512C 0.804974 -0.0166142 0.974659 0.0149843 1.1207 0.098016L 33.7107 32.658C 33.7815 32.727 33.8377 32.8094 33.8761 32.9004C 33.9145 32.9914 33.9343 33.0892 33.9343 33.188C 33.9343 33.2868 33.9145 33.3846 33.8761 33.4756C 33.8377 33.5667 33.7815 33.6491 33.7107 33.718C 33.6418 33.7886 33.5593 33.8445 33.4682 33.8823C 33.3771 33.9201 33.2793 33.9391 33.1807 33.938Z" transform="translate(-4.09012 0)" fill="#E5E6E7"/>
</g>
<g id="Vector_3">
<path d="M 5.94 11.88C 9.22057 11.88 11.88 9.22057 11.88 5.94C 11.88 2.65943 9.22057 3.66211e-06 5.94 3.66211e-06C 2.65943 3.66211e-06 0 2.65943 0 5.94C 0 9.22057 2.65943 11.88 5.94 11.88Z" transform="translate(12.5406 94.538)" fill="#00B0A9"/>
</g>
<g id="Vector_4">
<path d="M 1.62 3.24C 2.5147 3.24 3.24 2.5147 3.24 1.62C 3.24 0.725299 2.5147 0 1.62 0C 0.725299 0 0 0.725299 0 1.62C 0 2.5147 0.725299 3.24 1.62 3.24Z" transform="translate(27.5906 31.688)" fill="#E5E6E7"/>
</g>
</g>
</g>
</g>
</g>
</svg>

