<svg width="35" height="36" viewBox="0 0 35 36" version="1.1" xmlns="http://www.w3.org/2000/svg" xmlns:xlink="http://www.w3.org/1999/xlink">
<g id="Canvas" fill="none">
<g id="Layer 2">
<g id="Capa 1">
<g id="Vector">
<path d="M 29.83 23.62L 4.3 23.62C 3.15865 23.6174 2.06495 23.1621 1.25883 22.3541C 0.452712 21.5461 -3.07209e-06 20.4514 0 19.31L 0 4.31C -3.07209e-06 3.16865 0.452712 2.07389 1.25883 1.2659C 2.06495 0.457905 3.15865 0.00264861 4.3 4.57764e-07L 29.83 4.57764e-07C 30.9713 0.00264861 32.065 0.457905 32.8712 1.2659C 33.6773 2.07389 34.13 3.16865 34.13 4.31L 34.13 19.31C 34.13 20.4514 33.6773 21.5461 32.8712 22.3541C 32.065 23.1621 30.9713 23.6174 29.83 23.62ZM 4.3 2.04C 3.68908 2.04265 3.10409 2.28719 2.67304 2.72011C 2.242 3.15303 1.99999 3.73908 2 4.35L 2 19.35C 1.99999 19.9609 2.242 20.547 2.67304 20.9799C 3.10409 21.4128 3.68908 21.6574 4.3 21.66L 29.83 21.66C 30.4409 21.6574 31.0259 21.4128 31.457 20.9799C 31.888 20.547 32.13 19.9609 32.13 19.35L 32.13 4.35C 32.13 3.73908 31.888 3.15303 31.457 2.72011C 31.0259 2.28719 30.4409 2.04265 29.83 2.04L 4.3 2.04Z" transform="translate(0 12.27)" fill="#43AFA8"/>
</g>
<g id="Vector_2">
<path d="M 26.13 5C 25.8648 5 25.6104 4.89464 25.4229 4.70711C 25.2354 4.51957 25.13 4.26522 25.13 4C 25.13 3.46957 24.9193 2.96086 24.5442 2.58579C 24.1691 2.21071 23.6604 2 23.13 2L 4 2C 3.46957 2 2.96086 2.21071 2.58579 2.58579C 2.21071 2.96086 2 3.46957 2 4C 2 4.26522 1.89464 4.51957 1.70711 4.70711C 1.51957 4.89464 1.26522 5 1 5C 0.734784 5 0.48043 4.89464 0.292893 4.70711C 0.105357 4.51957 1.90735e-08 4.26522 1.90735e-08 4C 1.90735e-08 2.93913 0.421427 1.92172 1.17157 1.17157C 1.92172 0.421427 2.93913 1.90735e-07 4 1.90735e-07L 23.17 1.90735e-07C 24.2309 1.90735e-07 25.2483 0.421427 25.9984 1.17157C 26.7486 1.92172 27.17 2.93913 27.17 4C 27.1701 4.13476 27.143 4.26815 27.0902 4.39215C 27.0375 4.51616 26.9602 4.62823 26.8631 4.72163C 26.766 4.81503 26.651 4.88784 26.525 4.93567C 26.399 4.98351 26.2647 5.00539 26.13 5Z" transform="translate(3.48 5.80005)" fill="#43AFA8"/>
</g>
<g id="Vector_3">
<path d="M 20.17 4.26C 19.9048 4.26 19.6504 4.15464 19.4629 3.96711C 19.2754 3.77957 19.17 3.52522 19.17 3.26C 19.1674 2.92491 19.0324 2.60444 18.7945 2.36843C 18.5566 2.13242 18.2351 1.99999 17.9 2L 3.27 2C 2.9349 1.99999 2.61338 2.13242 2.37549 2.36843C 2.13761 2.60444 2.00264 2.92491 2 3.26C 2 3.52522 1.89464 3.77957 1.70711 3.96711C 1.51957 4.15464 1.26522 4.26 1 4.26C 0.734784 4.26 0.48043 4.15464 0.292893 3.96711C 0.105357 3.77957 1.90735e-08 3.52522 1.90735e-08 3.26C 0.00264689 2.39448 0.348332 1.56531 0.961289 0.954223C 1.57425 0.34314 2.40447 -4.04718e-06 3.27 0L 17.9 0C 18.7655 -4.04718e-06 19.5958 0.34314 20.2087 0.954223C 20.8217 1.56531 21.1674 2.39448 21.17 3.26C 21.17 3.52522 21.0646 3.77957 20.8771 3.96711C 20.6896 4.15464 20.4352 4.26 20.17 4.26Z" transform="translate(6.48 0)" fill="#43AFA8"/>
</g>
<g id="Vector_4">
<path d="M 5.37 10.74C 4.30792 10.74 3.26968 10.4251 2.38659 9.83499C 1.5035 9.24493 0.815212 8.40625 0.408769 7.42501C 0.00232688 6.44377 -0.104017 5.36404 0.103186 4.32237C 0.310388 3.28069 0.821831 2.32385 1.57284 1.57284C 2.32385 0.821832 3.28069 0.310388 4.32237 0.103186C 5.36405 -0.104017 6.44377 0.00232708 7.42501 0.40877C 8.40625 0.815212 9.24493 1.5035 9.83499 2.38659C 10.4251 3.26968 10.74 4.30792 10.74 5.37C 10.7374 6.7934 10.1707 8.15775 9.16425 9.16425C 8.15775 10.1707 6.7934 10.7374 5.37 10.74ZM 5.37 2C 4.70348 2 4.05192 2.19765 3.49773 2.56795C 2.94354 2.93825 2.5116 3.46457 2.25653 4.08036C 2.00146 4.69615 1.93472 5.37374 2.06476 6.02746C 2.19479 6.68117 2.51575 7.28165 2.98705 7.75295C 3.45835 8.22426 4.05883 8.54522 4.71255 8.67525C 5.36626 8.80528 6.04386 8.73854 6.65965 8.48348C 7.27543 8.22841 7.80175 7.79647 8.17206 7.24227C 8.54236 6.68808 8.74 6.03653 8.74 5.37C 8.74 4.47622 8.38495 3.61905 7.75295 2.98705C 7.12095 2.35506 6.26378 2 5.37 2Z" transform="translate(14.93 18.73)" fill="#8ACC49"/>
</g>
<g id="Vector_5">
<path d="M 5.36432 10.74C 4.48163 10.7391 3.61278 10.5206 2.83466 10.1038C 2.05654 9.68707 1.39315 9.08494 0.903202 8.35071C 0.41325 7.61648 0.111845 6.77279 0.0256599 5.89432C -0.0605249 5.01585 0.0711689 4.12967 0.409087 3.31422C 0.747004 2.49877 1.28072 1.7792 1.96301 1.21918C 2.64531 0.659154 3.45512 0.275957 4.3208 0.103495C 5.18648 -0.0689661 6.08133 -0.0253726 6.92615 0.230418C 7.77096 0.486208 8.5397 0.946306 9.16432 1.57C 9.35263 1.7583 9.45841 2.0137 9.45841 2.28C 9.45841 2.5463 9.35263 2.80169 9.16432 2.99C 8.97602 3.1783 8.72062 3.28409 8.45432 3.28409C 8.18802 3.28409 7.93263 3.1783 7.74432 2.99C 7.43449 2.67283 7.06427 2.42095 6.6555 2.2492C 6.24673 2.07745 5.80771 1.98931 5.36432 1.99C 4.80295 1.99002 4.25048 2.13028 3.75707 2.39804C 3.26367 2.6658 2.84498 3.05257 2.53901 3.52323C 2.23304 3.99389 2.0495 4.53353 2.00505 5.09314C 1.96059 5.65275 2.05664 6.21461 2.28447 6.72767C 2.51229 7.24073 2.86468 7.68876 3.30962 8.03105C 3.75456 8.37335 4.27797 8.59907 4.8323 8.68771C 5.38663 8.77636 5.95432 8.72513 6.48382 8.53867C 7.01332 8.35221 7.48785 8.03642 7.86432 7.62C 8.04334 7.42374 8.293 7.30663 8.55836 7.29444C 8.82372 7.28225 9.08306 7.37598 9.27932 7.555C 9.47558 7.73402 9.59269 7.98367 9.60488 8.24904C 9.61707 8.5144 9.52334 8.77374 9.34432 8.97C 8.84058 9.52571 8.22641 9.97017 7.54108 10.2749C 6.85576 10.5797 6.11436 10.7381 5.36432 10.74Z" transform="translate(8.46568 18.73)" fill="#8ACC49"/>
</g>
</g>
</g>
</g>
</svg>

