<svg width="51" height="37" viewBox="0 0 51 37" version="1.1" xmlns="http://www.w3.org/2000/svg" xmlns:xlink="http://www.w3.org/1999/xlink">
<g id="Canvas" fill="none">
<g id="feature-icn">
<g id="Layer 2">
<g id="Capa 1">
<g id="Vector">
<path d="M 29.8038 13.23C 29.7218 12.8118 29.4958 12.4357 29.1651 12.1671C 28.8343 11.8984 28.4198 11.7544 27.9938 11.76C 27.5487 11.7674 27.1119 11.6391 26.7416 11.3921C 26.3714 11.145 26.0852 10.791 25.9212 10.3772C 25.7571 9.96338 25.7231 9.50942 25.8236 9.07579C 25.9242 8.64216 26.1544 8.24945 26.4838 7.94999C 26.7962 7.66128 26.9891 7.26592 27.0242 6.84195C 27.0594 6.41799 26.9344 5.99625 26.6738 5.65999C 25.9765 4.77941 25.1814 3.98095 24.3038 3.27999C 24.0021 3.04087 23.6287 2.91051 23.2438 2.90999C 23.0086 2.90966 22.776 2.9584 22.5607 3.05311C 22.3455 3.14781 22.1524 3.28639 21.9938 3.45999C 21.7728 3.68674 21.5084 3.86652 21.2162 3.98853C 20.9241 4.11053 20.6103 4.17226 20.2938 4.16999C 20.0267 4.16841 19.7623 4.11756 19.5138 4.01999C 19.0978 3.84106 18.7465 3.53919 18.507 3.1549C 18.2674 2.7706 18.1512 2.32225 18.1738 1.86999C 18.1973 1.4397 18.0565 1.01654 17.7799 0.686092C 17.5032 0.355647 17.1115 0.142583 16.6838 0.0899914C 15.5636 -0.029997 14.4339 -0.029997 13.3138 0.0899914C 12.8914 0.139828 12.5031 0.346164 12.2254 0.668281C 11.9477 0.990399 11.8008 1.4049 11.8138 1.82999C 11.8299 2.27981 11.7084 2.72384 11.4653 3.1027C 11.2223 3.48155 10.8694 3.77716 10.4538 3.94999C 10.2115 4.04418 9.95365 4.09169 9.69375 4.08999C 9.37813 4.09187 9.06529 4.03094 8.77343 3.91077C 8.48158 3.79059 8.21654 3.61356 7.99375 3.38999C 7.83602 3.21458 7.64331 3.07413 7.42803 2.97768C 7.21274 2.88123 6.97965 2.83092 6.74375 2.82999C 6.38189 2.83853 6.03195 2.96101 5.74375 3.17999C 4.85021 3.88361 4.03846 4.6853 3.32375 5.56999C 3.05381 5.90549 2.92212 6.33138 2.95558 6.76069C 2.98903 7.19 3.1851 7.59035 3.50375 7.87999C 3.83216 8.18961 4.05584 8.59393 4.14367 9.03665C 4.2315 9.47937 4.17909 9.93845 3.99375 10.35C 3.79631 10.7625 3.48327 11.1087 3.0927 11.3466C 2.70213 11.5845 2.25086 11.7038 1.79375 11.69C 1.37674 11.6798 0.971023 11.826 0.656413 12.0999C 0.341803 12.3738 0.141085 12.7556 0.0937513 13.17C -0.0312504 14.2999 -0.0312504 15.4401 0.0937513 16.57C 0.173924 16.9944 0.401597 17.3767 0.736498 17.6494C 1.0714 17.922 1.49195 18.0675 1.92375 18.06L 1.99375 18.06C 2.42383 18.0652 2.84285 18.197 3.19852 18.4389C 3.55419 18.6807 3.83077 19.022 3.99375 19.42C 4.16031 19.8369 4.19595 20.2947 4.09591 20.7323C 3.99587 21.17 3.7649 21.5668 3.43375 21.87C 3.122 22.157 2.92946 22.5507 2.89427 22.973C 2.85908 23.3952 2.98381 23.8153 3.24375 24.15C 3.93816 25.0361 4.73353 25.8382 5.61375 26.54C 5.95019 26.8076 6.37555 26.9379 6.80417 26.9045C 7.23278 26.8711 7.63283 26.6765 7.92375 26.36C 8.14245 26.1331 8.40509 25.9531 8.69565 25.831C 8.98622 25.7089 9.2986 25.6473 9.61375 25.65C 9.88438 25.6476 10.1528 25.6986 10.4038 25.8C 10.8206 25.9777 11.1727 26.2793 11.4124 26.6639C 11.6521 27.0485 11.7678 27.4975 11.7438 27.95C 11.718 28.3798 11.8582 28.803 12.1355 29.1324C 12.4128 29.4617 12.8059 29.6721 13.2338 29.72C 14.35 29.85 15.4775 29.85 16.5938 29.72C 17.0171 29.6748 17.4078 29.4716 17.6877 29.1508C 17.9676 28.8301 18.1162 28.4155 18.1038 27.99C 18.0854 27.541 18.2049 27.0972 18.4462 26.7182C 18.6876 26.3392 19.0392 26.0432 19.4538 25.87C 19.6997 25.7766 19.9607 25.7292 20.2238 25.73C 20.5403 25.7277 20.8541 25.7894 21.1462 25.9115C 21.4384 26.0335 21.7028 26.2132 21.9238 26.44C 22.0829 26.6096 22.2749 26.7449 22.4881 26.8378C 22.7013 26.9306 22.9312 26.979 23.1638 26.98C 23.5438 26.9786 23.9128 26.8521 24.2138 26.62C 25.0948 25.9125 25.8962 25.1111 26.6038 24.23C 26.8748 23.8942 27.0063 23.467 26.9709 23.037C 26.9355 22.6069 26.736 22.2069 26.4138 21.92C 26.0871 21.6228 25.8578 21.2338 25.7562 20.804C 25.6546 20.3742 25.6852 19.9237 25.8442 19.5117C 26.0032 19.0996 26.283 18.7453 26.647 18.4951C 27.011 18.245 27.4421 18.1107 27.8838 18.11L 28.1238 18.11C 28.5359 18.108 28.9332 17.9555 29.2407 17.681C 29.5483 17.4066 29.745 17.0293 29.7938 16.62C 29.9221 15.4938 29.9254 14.3569 29.8038 13.23ZM 27.9938 16.17L 27.9938 16.31L 27.8438 16.31C 27.0609 16.321 26.298 16.5582 25.6469 16.9929C 24.9957 17.4276 24.4841 18.0412 24.1738 18.76C 23.8692 19.484 23.7846 20.2816 23.9304 21.0534C 24.0763 21.8252 24.4461 22.537 24.9938 23.1L 25.0938 23.21L 25.0038 23.32C 24.4788 23.9499 23.8926 24.526 23.2538 25.04L 23.1438 25.13L 23.0438 25.04C 22.2681 24.3232 21.2499 23.9267 20.1938 23.93C 19.6976 23.9267 19.2054 24.0183 18.7438 24.2C 18.0238 24.4932 17.4048 24.9898 16.9626 25.6292C 16.5204 26.2685 16.2741 27.0229 16.2538 27.8L 16.2538 27.95L 16.1138 27.95C 15.7238 27.95 15.3338 28 14.9338 28C 14.5338 28 14.1038 28 13.6938 27.94L 13.5438 27.94L 13.5438 27.79C 13.5375 27.006 13.301 26.2411 12.8637 25.5904C 12.4263 24.9397 11.8074 24.4318 11.0838 24.13C 10.611 23.9362 10.1047 23.8376 9.59375 23.84C 8.53764 23.8367 7.51941 24.2332 6.74375 24.95L 6.63375 25.05L 6.52375 24.96C 5.90079 24.4349 5.32524 23.856 4.80375 23.23L 4.71375 23.12L 4.81375 23.01C 5.35638 22.4488 5.72292 21.741 5.86821 20.974C 6.01349 20.207 5.93116 19.4143 5.63136 18.6935C 5.33156 17.9727 4.82741 17.3554 4.18103 16.9176C 3.53466 16.4799 2.77432 16.2409 1.99375 16.23L 1.88375 16.23L 1.88375 16.08C 1.80872 15.2617 1.80872 14.4383 1.88375 13.62L 1.88375 13.48L 1.99375 13.48C 2.77603 13.4668 3.53819 13.23 4.19027 12.7977C 4.84234 12.3653 5.35709 11.7554 5.67375 11.04C 5.97486 10.3163 6.05672 9.52012 5.90916 8.75032C 5.7616 7.98051 5.39112 7.27102 4.84375 6.70999L 4.74375 6.59999L 4.84375 6.48999C 5.36847 5.85691 5.95468 5.2774 6.59375 4.75999L 6.70375 4.66999L 6.80375 4.76999C 7.58685 5.50165 8.62211 5.90286 9.69375 5.88999C 10.1899 5.89328 10.6821 5.80164 11.1438 5.61999C 11.8637 5.3268 12.4827 4.83016 12.9249 4.19081C 13.3671 3.55146 13.6134 2.79711 13.6338 2.01999L 13.6338 1.86999L 13.7838 1.86999C 14.5887 1.79475 15.3988 1.79475 16.2038 1.86999L 16.3538 1.86999L 16.3538 2.02999C 16.36 2.814 16.5965 3.5789 17.0338 4.22962C 17.4712 4.88033 18.0901 5.38816 18.8138 5.68999C 19.2833 5.88278 19.7862 5.98132 20.2938 5.97999C 21.3531 5.98485 22.375 5.58824 23.1538 4.86999L 23.2638 4.76999L 23.3738 4.85999C 23.9944 5.37736 24.5637 5.95335 25.0738 6.57999L 25.1738 6.68999L 25.0738 6.78999C 24.5327 7.34935 24.1666 8.05439 24.0203 8.8187C 23.8739 9.58302 23.9537 10.3734 24.2499 11.0931C 24.546 11.8127 25.0456 12.4304 25.6875 12.8703C 26.3294 13.3103 27.0857 13.5534 27.8638 13.57L 27.9938 13.57L 27.9938 13.71C 28.0688 14.5283 28.0688 15.3517 27.9938 16.17Z" transform="translate(0 6.77002)" fill="#43AFA8"/>
</g>
<g id="Vector_2">
<path d="M 5.57 -8.39226e-07C 4.46681 0.00197621 3.38896 0.330917 2.47265 0.945256C 1.55634 1.5596 0.842694 2.43176 0.42189 3.45155C 0.00108618 4.47133 -0.107991 5.59297 0.108442 6.67472C 0.324876 7.75648 0.857107 8.7498 1.63788 9.52918C 2.41865 10.3086 3.41293 10.839 4.49507 11.0535C 5.57721 11.268 6.69865 11.1569 7.71768 10.7343C 8.73671 10.3117 9.60759 9.59645 10.2203 8.67904C 10.833 7.76163 11.16 6.68319 11.16 5.58C 11.1574 4.09917 10.5672 2.6799 9.5192 1.63374C 8.47116 0.58757 7.05083 -3.2087e-06 5.57 -8.39226e-07ZM 5.57 9.34C 4.82437 9.33802 4.09607 9.11498 3.4772 8.69908C 2.85833 8.28318 2.37669 7.69311 2.09317 7.00348C 1.80966 6.31385 1.73701 5.55563 1.88442 4.82471C 2.03183 4.09379 2.39266 3.423 2.9213 2.89716C 3.44994 2.37132 4.12264 2.01404 4.85433 1.87051C 5.58602 1.72699 6.34384 1.80366 7.03196 2.09082C 7.72008 2.37799 8.30759 2.86276 8.72019 3.48383C 9.1328 4.10489 9.35198 4.83437 9.35 5.58C 9.35001 6.07546 9.2521 6.56603 9.06189 7.02352C 8.87168 7.48102 8.59293 7.89641 8.24166 8.24582C 7.89039 8.59523 7.47353 8.87177 7.01503 9.05955C 6.55654 9.24733 6.06545 9.34263 5.57 9.34Z" transform="translate(9.42374 16.13)" fill="#8ACC49"/>
</g>
<g id="Vector_3">
<path d="M 4.36 -1.52588e-07C 3.20366 -1.52588e-07 2.09467 0.459356 1.27702 1.27701C 0.459358 2.09467 6.10352e-07 3.20366 6.10352e-07 4.36C 6.10352e-07 5.51634 0.459358 6.62533 1.27702 7.44299C 2.09467 8.26064 3.20366 8.72 4.36 8.72C 5.51635 8.72 6.62533 8.26064 7.44299 7.44299C 8.26064 6.62533 8.72 5.51634 8.72 4.36C 8.72 3.20366 8.26064 2.09467 7.44299 1.27701C 6.62533 0.459356 5.51635 -1.52588e-07 4.36 -1.52588e-07ZM 5.36 6.83C 5.04199 6.9582 4.70286 7.02603 4.36 7.03C 3.74274 7.02681 3.14565 6.80984 2.67033 6.41601C 2.19502 6.02219 1.87084 5.47584 1.75296 4.86993C 1.63508 4.26402 1.73077 3.63598 2.02377 3.09268C 2.31677 2.54938 2.78896 2.12438 3.36 1.89C 3.67781 1.76111 4.01706 1.69326 4.36 1.69C 4.97726 1.69319 5.57435 1.91016 6.04967 2.30399C 6.52498 2.69781 6.84916 3.24416 6.96705 3.85007C 7.08493 4.45598 6.98922 5.08402 6.69623 5.62732C 6.40323 6.17062 5.93104 6.59562 5.36 6.83Z" transform="translate(35.3538 6.66003)" fill="#8ACC49"/>
</g>
<g id="Vector_4">
<path d="M 20.9581 16.58C 21.3795 15.8231 21.7149 15.0215 21.9581 14.19C 22.0587 13.8398 22.0228 13.4646 21.8576 13.1398C 21.6925 12.8151 21.4104 12.565 21.0681 12.44C 20.7764 12.34 20.5231 12.1512 20.3438 11.9002C 20.1645 11.6492 20.0681 11.3485 20.0681 11.04C 20.0769 10.7482 20.1679 10.4648 20.3307 10.2224C 20.4934 9.98002 20.7213 9.78854 20.9881 9.67L 21.0781 9.67C 21.42 9.547 21.7027 9.29932 21.8696 8.97663C 22.0365 8.65393 22.0753 8.28008 21.9781 7.93C 21.744 7.09538 21.4081 6.2927 20.9781 5.54C 20.8469 5.31653 20.6578 5.13261 20.4308 5.00765C 20.2037 4.88269 19.9472 4.82132 19.6881 4.83C 19.4833 4.83167 19.2803 4.86889 19.0881 4.94C 18.8131 5.0561 18.5099 5.08861 18.2165 5.03348C 17.923 4.97835 17.6523 4.83802 17.4381 4.63C 17.2254 4.41214 17.0845 4.13432 17.0344 3.83395C 16.9844 3.53359 17.0276 3.22509 17.1581 2.95C 17.3075 2.62245 17.3287 2.25084 17.2177 1.90841C 17.1066 1.56598 16.8713 1.27756 16.5581 1.1C 15.8086 0.677859 15.0135 0.342368 14.1881 0.100005C 14.0585 0.0606085 13.9237 0.0403946 13.7881 0.0400046C 13.4864 0.042925 13.1933 0.14123 12.9508 0.320851C 12.7083 0.500471 12.5289 0.752199 12.4381 1.04C 12.3225 1.32351 12.1285 1.56816 11.8787 1.74528C 11.629 1.9224 11.3339 2.02464 11.0281 2.04C 10.7197 2.04 10.4189 1.94362 10.1679 1.76433C 9.91691 1.58504 9.72819 1.3318 9.62815 1.04C 9.54605 0.74952 9.37414 0.492464 9.13703 0.305651C 8.89992 0.118837 8.60978 0.0118473 8.30815 4.57284e-06C 8.17255 -0.00034968 8.03767 0.0198807 7.90815 0.0600046C 7.08283 0.302531 6.28774 0.638015 5.53815 1.06C 5.22324 1.23593 4.98582 1.52363 4.87286 1.86621C 4.75991 2.20878 4.77963 2.58128 4.92815 2.91C 5.0548 3.18734 5.09394 3.49669 5.04035 3.79683C 4.98675 4.09697 4.84296 4.37365 4.62815 4.59C 4.3236 4.86262 3.92678 5.00919 3.51815 5C 3.31123 4.99938 3.10677 4.95508 2.91815 4.87C 2.72938 4.77162 2.5209 4.71694 2.30815 4.71C 2.0541 4.71152 1.80492 4.77975 1.58554 4.90786C 1.36616 5.03598 1.18429 5.21949 1.05815 5.44C 0.630942 6.19055 0.295216 6.98957 0.0581475 7.82C -0.0448831 8.17019 -0.0100999 8.54651 0.155371 8.87187C 0.320841 9.19724 0.604471 9.44701 0.948147 9.57C 1.23994 9.67005 1.49318 9.85876 1.67247 10.1098C 1.85177 10.3608 1.94815 10.6615 1.94815 10.97C 1.93587 11.2778 1.83498 11.5756 1.65759 11.8275C 1.4802 12.0794 1.23385 12.2747 0.948147 12.39C 0.611901 12.5127 0.334913 12.7587 0.173353 13.0781C 0.0117938 13.3975 -0.0222418 13.7664 0.0781479 14.11C 0.319332 14.9422 0.654842 15.744 1.07815 16.5C 1.21019 16.7228 1.39946 16.9061 1.62632 17.0309C 1.85317 17.1558 2.10932 17.2176 2.36815 17.21C 2.58076 17.2119 2.79158 17.1711 2.98815 17.09C 3.2593 16.9811 3.5565 16.9543 3.84276 17.013C 4.12902 17.0716 4.39171 17.2132 4.59815 17.42C 4.81381 17.636 4.95743 17.9133 5.00935 18.2141C 5.06126 18.5148 5.01893 18.8242 4.88815 19.1C 4.73882 19.4276 4.71759 19.7992 4.82864 20.1416C 4.9397 20.484 5.17499 20.7724 5.48815 20.95C 6.23712 21.3733 7.03236 21.7088 7.85815 21.95C 7.98768 21.9901 8.12255 22.0104 8.25815 22.01C 8.55424 21.9981 8.83933 21.8946 9.07401 21.7136C 9.30868 21.5327 9.48135 21.2833 9.56815 21C 9.68477 20.7172 9.8791 20.4732 10.1286 20.2962C 10.3782 20.1193 10.6727 20.0166 10.9781 20C 11.2866 20 11.5874 20.0964 11.8384 20.2757C 12.0894 20.455 12.2781 20.7082 12.3781 21C 12.4689 21.2878 12.6483 21.5395 12.8908 21.7192C 13.1333 21.8988 13.4264 21.9971 13.7281 22C 13.8597 21.9988 13.9906 21.982 14.1181 21.95C 14.5429 21.8273 14.9602 21.6804 15.3681 21.51C 15.7481 21.35 16.1281 21.17 16.4981 20.97C 16.8131 20.7941 17.0505 20.5064 17.1634 20.1638C 17.2764 19.8212 17.2567 19.4487 17.1081 19.12C 16.9809 18.8445 16.9414 18.5365 16.9951 18.2377C 17.0487 17.939 17.1929 17.664 17.4081 17.45C 17.6961 17.1656 18.0834 17.0042 18.4881 17C 18.6983 17.0004 18.9061 17.0447 19.0981 17.13C 19.2887 17.2211 19.497 17.269 19.7081 17.27C 19.9583 17.2726 20.2049 17.2104 20.424 17.0895C 20.643 16.9686 20.827 16.7931 20.9581 16.58ZM 19.5881 15.58L 19.5281 15.58C 18.9589 15.3978 18.3513 15.3704 17.7679 15.5004C 17.1845 15.6304 16.6462 15.9133 16.2081 16.32C 15.7902 16.7427 15.4978 17.2732 15.3636 17.8524C 15.2294 18.4315 15.2587 19.0365 15.4481 19.6L 15.4481 19.67L 15.3781 19.67C 14.9095 19.9112 14.421 20.112 13.9181 20.27L 13.8581 20.27L 13.8581 20.21C 13.6018 19.6625 13.1948 19.1995 12.6847 18.875C 12.1746 18.5506 11.5826 18.3783 10.9781 18.3783C 10.3736 18.3783 9.78167 18.5506 9.27159 18.875C 8.76151 19.1995 8.35446 19.6625 8.09815 20.21L 8.09815 20.28L 8.02815 20.28C 7.52582 20.1164 7.03756 19.9124 6.56815 19.67L 6.50815 19.67L 6.50815 19.6C 6.70927 19.0379 6.74649 18.4301 6.61547 17.8476C 6.48446 17.2652 6.1906 16.7319 5.76815 16.31C 5.47188 16.0122 5.11972 15.7759 4.73189 15.6146C 4.34406 15.4533 3.92819 15.3702 3.50815 15.37C 3.16701 15.3727 2.82882 15.4336 2.50815 15.55L 2.43815 15.55L 2.43815 15.49C 2.19143 15.0122 1.9873 14.5136 1.82815 14L 1.82815 13.94L 1.88815 13.94C 2.4225 13.6598 2.8683 13.2363 3.17561 12.7171C 3.48292 12.1978 3.63962 11.6033 3.62815 11C 3.63179 10.3936 3.46252 9.79877 3.14017 9.28515C 2.81783 8.77153 2.35577 8.36042 1.80815 8.10001L 1.74815 8.10001L 1.74815 8.03C 1.91945 7.52583 2.12664 7.03457 2.36815 6.56L 2.36815 6.5L 2.42815 6.5C 2.75041 6.60915 3.08792 6.66653 3.42815 6.67C 4.27629 6.67803 5.09417 6.35518 5.70815 5.77C 6.13096 5.3483 6.42649 4.81605 6.56089 4.23421C 6.6953 3.65237 6.66316 3.04443 6.46815 2.48L 6.46815 2.41L 6.52815 2.41C 6.99778 2.17083 7.48605 1.97018 7.98815 1.81L 8.05815 1.81L 8.05815 1.87C 8.31714 2.41607 8.72459 2.87823 9.23389 3.20362C 9.7432 3.52901 10.3338 3.70449 10.9381 3.71C 11.5388 3.69949 12.1251 3.5242 12.633 3.20325C 13.1408 2.88231 13.5508 2.42803 13.8181 1.89L 13.8181 1.83L 13.8881 1.83C 14.3865 1.99548 14.8713 2.19943 15.3381 2.44L 15.3981 2.44L 15.3981 2.51C 15.2018 3.07277 15.1671 3.67928 15.2979 4.26078C 15.4287 4.84228 15.7198 5.3755 16.1381 5.8C 16.5655 6.22055 17.1012 6.51426 17.6856 6.64844C 18.27 6.78261 18.8801 6.752 19.4481 6.56L 19.5081 6.56L 19.5081 6.62C 19.816 7.07947 20.0836 7.5646 20.3081 8.07L 20.3081 8.14001L 20.2381 8.14001C 19.6929 8.39573 19.2318 8.80148 18.9088 9.30975C 18.5858 9.81802 18.4143 10.4078 18.4143 11.01C 18.4143 11.6122 18.5858 12.202 18.9088 12.7103C 19.2318 13.2185 19.6929 13.6243 20.2381 13.88L 20.3081 13.88L 20.3081 13.95C 20.1377 14.456 19.9271 14.9476 19.6781 15.42L 19.5881 15.58Z" transform="translate(28.6856 0)" fill="#43AFA8"/>
</g>
</g>
</g>
</g>
</g>
</svg>

