<svg width="52" height="49" viewBox="0 0 52 49" version="1.1" xmlns="http://www.w3.org/2000/svg" xmlns:xlink="http://www.w3.org/1999/xlink">
<g id="Canvas" fill="none">
<g id="Group">
<g id="Vector">
<path d="M 52 24.751C 52 23.4186 50.9003 22.3527 49.5256 22.3527C 48.1509 22.3527 47.0512 23.4186 47.0512 24.751C 47.0512 25.6503 47.5667 26.4497 48.3571 26.8494C 47.1543 38.1412 37.2566 46.9681 25.3314 46.9681C 12.7875 46.9681 2.40873 37.0753 2.16816 24.9175C 2.06506 18.9552 4.36764 13.2593 8.73222 8.92914C 13.0624 4.59895 18.8361 2.16739 24.9877 2.06746C 31.9642 1.96753 38.597 4.89874 43.099 10.0616C 43.6832 10.7278 43.6489 11.6938 43.0303 12.2934L 27.9433 26.8494C 27.2215 27.5489 26.2936 27.9153 25.297 27.9153C 24.3004 27.9153 23.3381 27.5489 22.6508 26.8494L 16.1211 20.4874C 16.2242 20.2209 16.2585 19.9545 16.2585 19.688C 16.2585 18.3556 15.1588 17.2897 13.7841 17.2897C 12.4095 17.2897 11.3097 18.3556 11.3097 19.688C 11.3097 21.0203 12.4095 22.0862 13.7841 22.0862C 14.0934 22.0862 14.3684 22.0196 14.6433 21.9197L 21.173 28.2817C 22.2727 29.3476 23.7505 29.9472 25.3314 29.9472C 26.9122 29.9472 28.39 29.3476 29.4898 28.2817L 44.4737 13.7257C 45.8827 12.36 45.9515 10.2282 44.6799 8.72928C 39.7311 3.06674 32.5484 -0.0976303 24.8846 0.002297C 18.1831 0.102224 11.8596 2.76695 7.15135 7.49685C 2.40873 12.2267 -0.100045 18.4222 0.00305523 24.9508C 0.140522 31.4128 2.82113 37.4417 7.56375 41.9718C 12.3064 46.5018 18.6299 49 25.297 49C 38.3908 49 49.1819 39.3404 50.4535 26.9827C 51.347 26.6163 52 25.7502 52 24.751Z" fill="#43AFA8"/>
</g>
<g id="Vector_2">
<path d="M 35.4322 5.08257e-07C 34.0575 5.08257e-07 32.9577 1.06589 32.9577 2.39826C 32.9577 2.69804 33.0265 2.96451 33.1296 3.23098L 18.6268 17.2874C 17.3896 18.4866 15.74 19.1527 14.0216 19.1527C 12.2689 19.1527 10.6193 18.4866 9.4165 17.2874L 4.81135 12.8573C 4.91445 12.5908 4.94882 12.3244 4.94882 12.0579C 4.94882 10.7255 3.84908 9.65964 2.47441 9.65964C 1.09974 9.65964 -2.62198e-07 10.7255 -2.62198e-07 12.0579C -2.62198e-07 13.3903 1.09974 14.4562 2.47441 14.4562C 2.78371 14.4562 3.05864 14.3895 3.29921 14.2896L 7.86999 18.753C 9.48523 20.3519 11.6847 21.2179 13.9873 21.2179C 16.2899 21.2179 18.455 20.3519 20.1046 18.753L 34.6073 4.69658C 34.8823 4.79651 35.1572 4.82982 35.4322 4.82982C 36.8068 4.82982 37.9066 3.76393 37.9066 2.43157C 37.9066 1.0992 36.8068 5.08257e-07 35.4322 5.08257e-07Z" transform="translate(11.2754 15.9573)" fill="#8ACC49"/>
</g>
</g>
</g>
</svg>

