<svg width="235" height="162" viewBox="0 0 235 162" version="1.1" xmlns="http://www.w3.org/2000/svg" xmlns:xlink="http://www.w3.org/1999/xlink">
<g id="Canvas" fill="none">
<g id="lines-1">
<g id="Layer 2">
<g id="Capa 1">
<g id="Vector">
<path d="M 260.3 0L 0 0L 0 8L 260.3 8L 260.3 0Z" transform="matrix(0.873007 -0.487707 0.487707 0.873007 -4.74113 133.159)" fill="url(#paint0_linear)"/>
</g>
<g id="Vector_2">
<path d="M 0.746488 25.0827C 0.611784 25.082 0.479677 25.0455 0.363706 24.977C 0.247735 24.9085 0.152063 24.8104 0.0864842 24.6927C -0.00404232 24.5209 -0.0244113 24.3207 0.0296758 24.1342C 0.0837628 23.9477 0.208082 23.7894 0.376478 23.6927L 42.5965 0.102698C 42.6826 0.0522798 42.778 0.0195657 42.8769 0.00647622C 42.9759 -0.00661331 43.0765 0.000183847 43.1728 0.026469C 43.2691 0.0527543 43.3592 0.097997 43.4378 0.159549C 43.5163 0.2211 43.5819 0.29772 43.6304 0.384917C 43.679 0.472114 43.7097 0.568135 43.7207 0.66735C 43.7317 0.766564 43.7228 0.866975 43.6945 0.962699C 43.6662 1.05842 43.6191 1.14753 43.5559 1.2248C 43.4927 1.30207 43.4147 1.36595 43.3265 1.4127L 1.10647 24.9827C 0.998164 25.049 0.873471 25.0836 0.746488 25.0827Z" transform="translate(161.562 41.2973)" fill="#E5E6E7"/>
</g>
<g id="Vector_3">
<path d="M 0.738843 39.1675C 0.608378 39.1702 0.479536 39.1383 0.365383 39.075C 0.25123 39.0118 0.155826 38.9195 0.0888429 38.8075C -0.00252455 38.6369 -0.0244042 38.4376 0.0277783 38.2512C 0.0799607 38.0649 0.202165 37.9059 0.368843 37.8075L 67.7388 0.127543C 67.8245 0.0699829 67.9211 0.0307122 68.0226 0.0121869C 68.1241 -0.0063384 68.2283 -0.00372214 68.3288 0.0198773C 68.4292 0.0434768 68.5237 0.0875521 68.6064 0.149341C 68.689 0.211129 68.758 0.289305 68.809 0.378978C 68.8601 0.46865 68.8921 0.567888 68.903 0.670489C 68.9139 0.77309 68.9036 0.87685 68.8726 0.975268C 68.8416 1.07369 68.7906 1.16465 68.7229 1.24247C 68.6551 1.32029 68.5721 1.3833 68.4788 1.42755L 1.10884 39.0675C 0.996432 39.1328 0.868818 39.1673 0.738843 39.1675Z" transform="translate(-11 81.1925)" fill="#E5E6E7"/>
</g>
<g id="Vector_4">
<path d="M 0.764009 14.9432C 0.595872 14.9464 0.431559 14.8929 0.297456 14.7914C 0.163352 14.69 0.0672511 14.5464 0.0245676 14.3837C -0.0181159 14.2211 -0.00489773 14.0488 0.0621042 13.8945C 0.129106 13.7403 0.245998 13.613 0.394013 13.5332L 24.464 0.0832197C 24.6363 -0.00480355 24.8357 -0.0238101 25.0215 0.0300753C 25.2073 0.0839606 25.3655 0.20668 25.464 0.373219C 25.5545 0.545019 25.5749 0.745235 25.5208 0.931742C 25.4667 1.11825 25.3424 1.27651 25.174 1.37322L 1.12401 14.8432C 1.0157 14.9095 0.890992 14.9442 0.764009 14.9432Z" transform="translate(140.455 20.7868)" fill="#E5E6E7"/>
</g>
<g id="Vector_5">
<path d="M 0.997964 9.26278C 0.820768 9.26248 0.646833 9.21509 0.493966 9.12548C 0.341099 9.03587 0.21478 8.90725 0.127954 8.75278C -0.00159669 8.52196 -0.0343419 8.24918 0.0368892 7.99425C 0.10812 7.73931 0.277521 7.52302 0.507959 7.39278L 13.508 0.13278C 13.6229 0.0671192 13.7496 0.0247371 13.8809 0.00804716C 14.0122 -0.00864277 14.1454 0.000691008 14.2731 0.035513C 14.4008 0.0703349 14.5204 0.129964 14.625 0.210997C 14.7296 0.292029 14.8173 0.392873 14.883 0.50778C 14.9486 0.622687 14.991 0.749402 15.0077 0.88069C 15.0244 1.01198 15.0151 1.14527 14.9802 1.27295C 14.9454 1.40063 14.8858 1.5202 14.8047 1.62484C 14.7237 1.72947 14.6229 1.81712 14.508 1.88278L 1.50796 9.14278C 1.35164 9.2274 1.17561 9.26882 0.997964 9.26278Z" transform="translate(141.621 68.3572)" fill="#43AFA8"/>
</g>
<g id="Vector_6">
<path d="M 0.996959 5.70345C 0.7764 5.70278 0.562248 5.62921 0.387843 5.49419C 0.213438 5.35917 0.0885706 5.17028 0.0326643 4.95693C -0.023242 4.74357 -0.0070519 4.51771 0.0787306 4.31452C 0.164513 4.11133 0.315065 3.94219 0.506953 3.83345L 7.12696 0.133447C 7.3577 0.000838265 7.63167 -0.0346777 7.88859 0.0347107C 8.14552 0.104099 8.36435 0.272708 8.49696 0.503446C 8.62957 0.734185 8.66509 1.00815 8.5957 1.26508C 8.52631 1.522 8.3577 1.74084 8.12696 1.87345L 1.49696 5.57345C 1.3457 5.66263 1.1725 5.70766 0.996959 5.70345Z" transform="translate(169.072 14.1566)" fill="#8ACC49"/>
</g>
<g id="Vector_7">
<path d="M 9.69 19.38C 15.0416 19.38 19.38 15.0416 19.38 9.69C 19.38 4.33836 15.0416 0 9.69 0C 4.33836 0 -5.49316e-06 4.33836 -5.49316e-06 9.69C -5.49316e-06 15.0416 4.33836 19.38 9.69 19.38Z" transform="translate(214.749 0)" fill="#00B573"/>
</g>
<g id="Vector_8">
<path d="M 1.62 3.24C 2.5147 3.24 3.24 2.5147 3.24 1.62C 3.24 0.725297 2.5147 3.35693e-06 1.62 3.35693e-06C 0.725298 3.35693e-06 -3.66211e-06 0.725297 -3.66211e-06 1.62C -3.66211e-06 2.5147 0.725298 3.24 1.62 3.24Z" transform="translate(61.0788 77.23)" fill="#8ACC49"/>
</g>
<g id="Vector_9">
<path d="M 1.62 3.24C 2.5147 3.24 3.24 2.5147 3.24 1.62C 3.24 0.7253 2.5147 0 1.62 0C 0.7253 0 0 0.7253 0 1.62C 0 2.5147 0.7253 3.24 1.62 3.24Z" transform="translate(65.6588 74.67)" fill="#E5E6E7"/>
</g>
<g id="Vector_10">
<path d="M 0.764013 25.0873C 0.595876 25.0904 0.431562 25.037 0.297459 24.9355C 0.163356 24.8341 0.0672449 24.6905 0.0245614 24.5278C -0.0181221 24.3651 -0.00490131 24.1929 0.0621006 24.0386C 0.129103 23.8844 0.245998 23.7571 0.394013 23.6773L 42.614 0.0873046C 42.7874 -0.00455417 42.9898 -0.0248337 43.1779 0.0308013C 43.366 0.0864362 43.5249 0.213564 43.6203 0.384927C 43.7158 0.556291 43.7404 0.758237 43.6887 0.947488C 43.6371 1.13674 43.5133 1.29822 43.344 1.3973L 1.12401 24.9573C 1.01842 25.0332 0.89376 25.0783 0.764013 25.0873Z" transform="translate(-9.54517 136.913)" fill="#E5E6E7"/>
</g>
</g>
</g>
</g>
</g>
<defs>

<linearGradient id="paint0_linear" x2="1" gradientUnits="userSpaceOnUse" gradientTransform="translate(0.01 -126.15) scale(260.3 260.3)">
<stop stop-color="#8ACC49"/>
<stop offset="1" stop-color="#4DB07D"/>
</linearGradient>

</defs>
</svg>

