<svg width="217" height="164" viewBox="0 0 217 164" version="1.1" xmlns="http://www.w3.org/2000/svg" xmlns:xlink="http://www.w3.org/1999/xlink">
<g id="Canvas" fill="none">
<g id="lines-2">
<g id="Layer 2">
<g id="Capa 1">
<g id="Vector">
<path d="M 279.51 0L 0 0L 0 8L 279.51 8L 279.51 0Z" transform="matrix(0.843485 -0.537152 0.537152 0.843485 7.55504 150.139)" fill="url(#paint0_linear)"/>
</g>
<g id="Vector_2">
<path d="M 0.77363 54.6182C 0.609733 54.6233 0.448665 54.5746 0.315073 54.4795C 0.181482 54.3845 0.0827421 54.2482 0.0339605 54.0916C -0.0148211 53.9351 -0.0109532 53.7669 0.0449773 53.6127C 0.100908 53.4586 0.205814 53.327 0.343638 53.2382L 83.7836 0.118163C 83.952 0.0107501 84.1562 -0.0253616 84.3513 0.0177717C 84.5463 0.0609051 84.7162 0.17975 84.8236 0.348163C 84.931 0.516575 84.9672 0.720759 84.924 0.915797C 84.8809 1.11084 84.762 1.28075 84.5936 1.38816L 1.17364 54.4982C 1.05509 54.5768 0.915891 54.6186 0.77363 54.6182Z" transform="translate(131.656 0.683563)" fill="#E5E6E7"/>
</g>
<g id="Vector_3">
<path d="M 0.735303 13.2055C 0.608985 13.2066 0.484528 13.175 0.374101 13.1136C 0.263674 13.0523 0.171055 12.9633 0.105302 12.8555C 0.00693993 12.6914 -0.0240513 12.4956 0.0188308 12.3091C 0.0617129 12.1227 0.175135 11.9601 0.335302 11.8555L 18.7153 0.115488C 18.8837 0.00940137 19.0874 -0.0254383 19.2815 0.0186328C 19.4756 0.0627038 19.6442 0.182076 19.7503 0.350489C 19.8564 0.518901 19.8912 0.722558 19.8472 0.916658C 19.8031 1.11076 19.6837 1.2794 19.5153 1.38548L 1.1353 13.0855C 1.01675 13.1641 0.877564 13.2059 0.735303 13.2055Z" transform="translate(49.1247 94.6663)" fill="#E5E6E7"/>
</g>
<g id="Vector_4">
<path d="M 0.728575 6.55816C 0.602621 6.55742 0.478885 6.52496 0.36878 6.46379C 0.258675 6.40262 0.165751 6.31471 0.0985775 6.20816C 0.00503948 6.04288 -0.0232301 5.84857 0.0193386 5.66348C 0.0619072 5.4784 0.172225 5.31597 0.328573 5.20816L 8.23858 0.118162C 8.32197 0.0649765 8.41502 0.0287357 8.51241 0.0115105C 8.60981 -0.00571459 8.70964 -0.00358702 8.80621 0.0177705C 8.90278 0.0391279 8.99421 0.0792955 9.07525 0.135984C 9.1563 0.192673 9.22538 0.264772 9.27857 0.348161C 9.33176 0.431551 9.368 0.524597 9.38523 0.621992C 9.40245 0.719387 9.40033 0.819223 9.37897 0.915796C 9.35762 1.01237 9.31744 1.10379 9.26075 1.18484C 9.20406 1.26588 9.13196 1.33497 9.04857 1.38816L 1.10858 6.38816C 1.00142 6.48101 0.869217 6.54015 0.728575 6.55816Z" transform="translate(118.761 56.9836)" fill="#8ACC49"/>
</g>
<g id="Vector_5">
<path d="M 0.738578 26.0882C 0.61219 26.0884 0.487691 26.0575 0.376075 25.9982C 0.264459 25.9389 0.169156 25.853 0.098575 25.7482C 0.00503703 25.5829 -0.0232287 25.3886 0.0193399 25.2035C 0.0619086 25.0184 0.17223 24.856 0.328578 24.7482L 39.0086 0.118155C 39.092 0.0649698 39.185 0.0287366 39.2824 0.0115115C 39.3798 -0.00571367 39.4796 -0.00358992 39.5762 0.0177676C 39.6728 0.039125 39.7642 0.0792888 39.8453 0.135977C 39.9263 0.192666 39.9954 0.264777 40.0486 0.348166C 40.1018 0.431556 40.138 0.524605 40.1552 0.622C 40.1725 0.719395 40.1703 0.81922 40.149 0.915793C 40.1276 1.01237 40.0874 1.10379 40.0308 1.18484C 39.9741 1.26588 39.902 1.33497 39.8186 1.38816L 1.13858 25.9982C 1.01601 26.0642 0.877639 26.0954 0.738578 26.0882Z" transform="translate(40.3214 129.024)" fill="#E5E6E7"/>
</g>
<g id="Vector_6">
<path d="M 0.74311 8.16857C 0.581803 8.16709 0.425276 8.11364 0.296752 8.01615C 0.168229 7.91867 0.0745561 7.78234 0.0296471 7.62741C -0.0152619 7.47247 -0.00901278 7.30719 0.0474541 7.15608C 0.103921 7.00497 0.207598 6.87609 0.343108 6.78858L 10.8831 0.0985747C 11.0484 0.00503673 11.2427 -0.0232252 11.4278 0.0193434C 11.6129 0.0619121 11.7753 0.17223 11.8831 0.328578C 11.9815 0.492666 12.0125 0.688475 11.9696 0.874919C 11.9267 1.06136 11.8133 1.22395 11.6531 1.32858L 1.14311 8.02857C 1.0255 8.11174 0.886914 8.16024 0.74311 8.16857Z" transform="translate(85.1169 118.413)" fill="#43AFA8"/>
</g>
<g id="Vector_7">
<path d="M 0.745296 34.4766C 0.617826 34.4766 0.492404 34.4446 0.380565 34.3834C 0.268726 34.3223 0.174064 34.2339 0.105297 34.1266C 0.00693429 33.9625 -0.0240569 33.7667 0.0188252 33.5803C 0.0617072 33.3938 0.175141 33.2312 0.335308 33.1266L 52.1053 0.126615C 52.2777 0.013898 52.4878 -0.0257224 52.6894 0.0164733C 52.891 0.0586689 53.0676 0.179223 53.1803 0.351613C 53.293 0.524004 53.3326 0.734111 53.2904 0.935712C 53.2483 1.13731 53.1277 1.3139 52.9553 1.42661L 1.1853 34.4266C 1.04669 34.486 0.893695 34.5034 0.745296 34.4766Z" transform="translate(149.045 49.5951)" fill="#E5E6E7"/>
</g>
<g id="Vector_8">
<path d="M 1.53 3.06C 2.37499 3.06 3.06 2.375 3.06 1.53C 3.06 0.685008 2.37499 -3.05176e-06 1.53 -3.05176e-06C 0.685004 -3.05176e-06 0 0.685008 0 1.53C 0 2.375 0.685004 3.06 1.53 3.06Z" transform="translate(43.02 108.972)" fill="#8ACC49"/>
</g>
<g id="Vector_9">
<path d="M 1.53 3.06C 2.37499 3.06 3.06 2.375 3.06 1.53C 3.06 0.685006 2.37499 2.74658e-06 1.53 2.74658e-06C 0.685003 2.74658e-06 0 0.685006 0 1.53C 0 2.375 0.685003 3.06 1.53 3.06Z" transform="translate(38.82 111.642)" fill="#E5E6E7"/>
</g>
<g id="Vector_10">
<path d="M 1.53 3.06C 2.375 3.06 3.06 2.37499 3.06 1.53C 3.06 0.685003 2.375 0 1.53 0C 0.685004 0 0 0.685003 0 1.53C 0 2.37499 0.685004 3.06 1.53 3.06Z" transform="translate(205.22 45.5217)" fill="#43AFA8"/>
</g>
<g id="Vector_11">
<path d="M 1.53 3.06C 2.37499 3.06 3.06 2.375 3.06 1.53C 3.06 0.685005 2.37499 0 1.53 0C 0.685001 0 0 0.685005 0 1.53C 0 2.375 0.685001 3.06 1.53 3.06Z" transform="translate(209.42 42.8517)" fill="#E5E6E7"/>
</g>
<g id="Vector_12">
<path d="M 9.69 19.38C 15.0416 19.38 19.38 15.0416 19.38 9.69001C 19.38 4.33837 15.0416 3.05176e-06 9.69 3.05176e-06C 4.33836 3.05176e-06 0 4.33837 0 9.69001C 0 15.0416 4.33836 19.38 9.69 19.38Z" transform="translate(0 143.822)" fill="#00B2AA"/>
</g>
</g>
</g>
</g>
</g>
<defs>

<linearGradient id="paint0_linear" x2="1" gradientUnits="userSpaceOnUse" gradientTransform="translate(0.02 -135.755) scale(279.51 279.51)">
<stop stop-color="#43AFA8"/>
<stop offset="0.25" stop-color="#3DB8AD"/>
<stop offset="0.65" stop-color="#2ED1BB"/>
<stop offset="1" stop-color="#1EEBC9"/>
</linearGradient>

</defs>
</svg>

