<svg width="42" height="87" viewBox="0 0 42 87" version="1.1" xmlns="http://www.w3.org/2000/svg" xmlns:xlink="http://www.w3.org/1999/xlink">
<g id="Canvas" fill="none">
<g id="line2-sidebar">
<g id="Capa 2">
<g id="Capa 1">
<g id="Vector">
<path d="M 17.9 17.9L 0 -2.28882e-07L 0 2.83L 16.49 19.31C 19.0969 21.9233 20.5609 25.4638 20.5609 29.155C 20.5609 32.8462 19.0969 36.3867 16.49 39L 0 55.49L 0 58.31L 17.9 40.41C 20.8818 37.4233 22.5566 33.3754 22.5566 29.155C 22.5566 24.9346 20.8818 20.8867 17.9 17.9Z" transform="translate(0 4.70996)" fill="#E5E6E7" fill-opacity="0.5"/>
</g>
<g id="Vector_2">
<path d="M 34.11 14.91L 24.46 5.26995C 24.8326 4.58183 24.9688 3.79034 24.8477 3.01724C 24.7265 2.24415 24.3547 1.53228 23.7894 0.991148C 23.2241 0.45002 22.4967 0.109613 21.7191 0.0222978C 20.9414 -0.0650176 20.1566 0.105595 19.4854 0.507889C 18.8142 0.910183 18.2938 1.52187 18.0042 2.24885C 17.7146 2.97582 17.6719 3.77781 17.8826 4.53143C 18.0934 5.28506 18.5459 5.94856 19.1706 6.41987C 19.7952 6.89118 20.5575 7.14418 21.34 7.13995C 21.9397 7.13353 22.528 6.97527 23.05 6.67995L 32.69 16.32C 34.9943 18.6238 36.8222 21.3591 38.0694 24.3695C 39.3165 27.3799 39.9584 30.6065 39.9584 33.865C 39.9584 37.1234 39.3165 40.35 38.0694 43.3604C 36.8222 46.3708 34.9943 49.1061 32.69 51.41L 0 84.1L 0 86.97L 34.11 52.82C 39.129 47.7884 41.9475 40.9717 41.9475 33.865C 41.9475 26.7582 39.129 19.9415 34.11 14.91Z" fill="#E5E6E7"/>
</g>
</g>
</g>
</g>
</g>
</svg>

