<svg width="73" height="145" viewBox="0 0 73 145" version="1.1" xmlns="http://www.w3.org/2000/svg" xmlns:xlink="http://www.w3.org/1999/xlink">
<g id="Canvas" fill="none">
<g id="right-lines">
<g id="Layer 2">
<g id="Capa 1">
<g id="Vector">
<path d="M 61.7061 113.24L 7.17607 58.75C 2.5809 54.1472 -1.62004e-07 47.909 -1.62004e-07 41.405C -1.62004e-07 34.901 2.5809 28.6628 7.17607 24.06L 31.3061 0L 35.5461 4.25L 11.4561 28.3C 9.73471 30.0208 8.36921 32.0638 7.43758 34.3124C 6.50596 36.561 6.02645 38.9711 6.02645 41.405C 6.02645 43.8389 6.50596 46.249 7.43758 48.4976C 8.36921 50.7462 9.73471 52.7892 11.4561 54.51L 65.9461 109L 61.7061 113.24Z" transform="translate(17.8248 5)" fill="url(#paint0_linear)"/>
</g>
<g id="Vector_2">
<path d="M 81.7309 135.579C 81.6324 135.579 81.5347 135.56 81.4437 135.522C 81.3527 135.484 81.2701 135.429 81.2009 135.359L 11.1309 65.2387C 4.00335 58.1008 0 48.4259 0 38.3387C 0 28.2515 4.00335 18.5766 11.1309 11.4387L 22.3209 0.238708C 22.3896 0.165022 22.4724 0.105919 22.5644 0.0649269C 22.6564 0.0239349 22.7557 0.00189389 22.8564 0.000117102C 22.9571 -0.00165968 23.0571 0.0168642 23.1505 0.0545853C 23.2439 0.0923063 23.3287 0.148451 23.3999 0.21967C 23.4712 0.290889 23.5273 0.375722 23.565 0.46911C 23.6027 0.562498 23.6213 0.662528 23.6195 0.763231C 23.6177 0.863934 23.5957 0.963247 23.5547 1.05525C 23.5137 1.14725 23.4546 1.23005 23.3809 1.29871L 12.1909 12.5387C 5.34669 19.3967 1.50281 28.6898 1.50281 38.3787C 1.50281 48.0676 5.34669 57.3608 12.1909 64.2187L 82.2609 134.299C 82.3317 134.368 82.3879 134.45 82.4263 134.541C 82.4647 134.632 82.4845 134.73 82.4845 134.829C 82.4845 134.928 82.4647 135.025 82.4263 135.116C 82.3879 135.207 82.3317 135.29 82.2609 135.359C 82.1927 135.43 82.1104 135.487 82.0191 135.525C 81.9279 135.563 81.8297 135.581 81.7309 135.579Z" transform="translate(0 8.76123)" fill="#E5E6E7"/>
</g>
<g id="Vector_3">
<path d="M 7.08 14.16C 10.9902 14.16 14.16 10.9902 14.16 7.08C 14.16 3.16982 10.9902 0 7.08 0C 3.16982 0 0 3.16982 0 7.08C 0 10.9902 3.16982 14.16 7.08 14.16Z" transform="translate(44.1709 0)" fill="#40C74C"/>
</g>
<g id="Vector_4">
<path d="M 1.62 3.24C 2.5147 3.24 3.24 2.5147 3.24 1.62C 3.24 0.725299 2.5147 0 1.62 0C 0.725299 0 0 0.725299 0 1.62C 0 2.5147 0.725299 3.24 1.62 3.24Z" transform="translate(21.4109 7.79004)" fill="#E5E6E7"/>
</g>
</g>
</g>
</g>
</g>
<defs>

<linearGradient id="paint0_linear" x2="1" gradientUnits="userSpaceOnUse" gradientTransform="translate(0.0460691 23.65) scale(65.9 65.9)">
<stop stop-color="#8ACC49"/>
<stop offset="1" stop-color="#4DB07D"/>
</linearGradient>

</defs>
</svg>

