<svg width="63" height="65" viewBox="0 0 63 65" version="1.1" xmlns="http://www.w3.org/2000/svg" xmlns:xlink="http://www.w3.org/1999/xlink">
<g id="Canvas" fill="none">
<g id="line1-sidebar">
<g id="Capa 2">
<g id="Capa 1">
<g id="Vector">
<path d="M 62.7106 0L 0.290562 62.42C 0.103585 62.6083 -0.000931427 62.8632 6.25532e-06 63.1285C 0.000943937 63.3939 0.107259 63.648 0.295562 63.835C 0.483866 64.022 0.738734 64.1265 1.0041 64.1256C 1.26946 64.1246 1.52358 64.0183 1.71056 63.83L 62.7106 2.83L 62.7106 0Z" fill="#E5E6E7" fill-opacity="0.5"/>
</g>
<g id="Vector_2">
<path d="M 23.1 -9.15527e-07L 5.28 17.79C 4.59323 17.4153 3.80237 17.2765 3.02904 17.395C 2.25572 17.5136 1.54275 17.8829 0.999771 18.4462C 0.456795 19.0094 0.11388 19.7355 0.023765 20.5126C -0.0663504 21.2898 0.101321 22.075 0.500995 22.7476C 0.900669 23.4201 1.51021 23.9428 2.23589 24.2352C 2.96157 24.5275 3.7632 24.5734 4.5175 24.3658C 5.2718 24.1581 5.93701 23.7085 6.41083 23.0859C 6.88465 22.4633 7.14084 21.7024 7.14 20.92C 7.13839 20.3209 6.98347 19.7323 6.69 19.21L 23.1 2.79L 23.1 -9.15527e-07Z" transform="translate(39.6106 20.21)" fill="#E5E6E7"/>
</g>
</g>
</g>
</g>
</g>
</svg>

