<svg width="49" height="47" viewBox="0 0 49 47" version="1.1" xmlns="http://www.w3.org/2000/svg" xmlns:xlink="http://www.w3.org/1999/xlink">
<g id="Canvas" fill="none">
<g id="cloud-icn">
<g id="Layer 2">
<g id="Capa 1">
<g id="Vector">
<path d="M 0.999999 9.13C 0.734783 9.13 0.48043 9.02464 0.292894 8.83711C 0.105357 8.64957 1.14441e-07 8.39522 1.14441e-07 8.13L 1.14441e-07 1C 1.14441e-07 0.734784 0.105357 0.48043 0.292894 0.292893C 0.48043 0.105357 0.734783 7.62939e-07 0.999999 7.62939e-07C 1.26522 7.62939e-07 1.51957 0.105357 1.70711 0.292893C 1.89464 0.48043 2 0.734784 2 1L 2 8.13C 2 8.39522 1.89464 8.64957 1.70711 8.83711C 1.51957 9.02464 1.26522 9.13 0.999999 9.13Z" transform="translate(15.2205 25.4659)" fill="#43AFA8"/>
</g>
<g id="Vector_2">
<path d="M 1 9.13C 0.734783 9.13 0.48043 9.02464 0.292894 8.83711C 0.105358 8.64957 -3.05176e-07 8.39522 -3.05176e-07 8.13L -3.05176e-07 1C -3.05176e-07 0.734784 0.105358 0.48043 0.292894 0.292893C 0.48043 0.105357 0.734783 7.62939e-07 1 7.62939e-07C 1.26522 7.62939e-07 1.51957 0.105357 1.70711 0.292893C 1.89464 0.48043 2 0.734784 2 1L 2 8.13C 2 8.39522 1.89464 8.64957 1.70711 8.83711C 1.51957 9.02464 1.26522 9.13 1 9.13Z" transform="translate(29.4105 25.4659)" fill="#43AFA8"/>
</g>
<g id="Vector_3">
<path d="M 1 22.6C 0.734783 22.6 0.48043 22.4946 0.292894 22.3071C 0.105358 22.1196 -3.8147e-07 21.8652 -3.8147e-07 21.6L -3.8147e-07 1C -3.8147e-07 0.734783 0.105358 0.48043 0.292894 0.292894C 0.48043 0.105358 0.734783 -3.8147e-07 1 -3.8147e-07C 1.26522 -3.8147e-07 1.51957 0.105358 1.70711 0.292894C 1.89464 0.48043 2 0.734783 2 1L 2 21.6C 2 21.8652 1.89464 22.1196 1.70711 22.3071C 1.51957 22.4946 1.26522 22.6 1 22.6Z" transform="translate(22.4905 19.416)" fill="#8ACC49"/>
</g>
<g id="Vector_4">
<path d="M 3.08 6.16C 2.47083 6.16 1.87535 5.97936 1.36884 5.64093C 0.862341 5.30249 0.467571 4.82146 0.234453 4.25867C 0.00133497 3.69587 -0.0596597 3.07658 0.0591828 2.47912C 0.178025 1.88166 0.471367 1.33286 0.902113 0.902114C 1.33286 0.471368 1.88166 0.178027 2.47912 0.0591843C 3.07658 -0.0596582 3.69587 0.00133264 4.25867 0.234451C 4.82146 0.467568 5.30249 0.862343 5.64093 1.36885C 5.97936 1.87535 6.16 2.47083 6.16 3.08C 6.16 3.89687 5.8355 4.68028 5.25789 5.25789C 4.68028 5.8355 3.89687 6.16 3.08 6.16ZM 3.08 2.01C 2.86597 2.01001 2.65677 2.07361 2.47896 2.19273C 2.30114 2.31185 2.16273 2.48112 2.08129 2.67905C 1.99985 2.87697 1.97905 3.09464 2.02154 3.3044C 2.06403 3.51417 2.16789 3.70658 2.31993 3.85722C 2.47198 4.00785 2.66535 4.10992 2.8755 4.15045C 3.08565 4.19099 3.30311 4.16817 3.50028 4.08489C 3.69744 4.00161 3.86541 3.86163 3.98287 3.68272C 4.10033 3.5038 4.16198 3.29402 4.16 3.08C 4.15736 2.7953 4.04242 2.52317 3.84016 2.32278C 3.63791 2.1224 3.36471 2.00999 3.08 2.01Z" transform="translate(13.1405 33.006)" fill="#43AFA8"/>
</g>
<g id="Vector_5">
<path d="M 3.08 6.16C 2.47084 6.16 1.87535 5.97936 1.36885 5.64093C 0.862342 5.30249 0.467571 4.82146 0.234453 4.25867C 0.00133546 3.69587 -0.0596592 3.07658 0.0591833 2.47912C 0.178026 1.88166 0.471367 1.33286 0.902113 0.902114C 1.33286 0.471368 1.88166 0.178027 2.47912 0.0591843C 3.07658 -0.0596582 3.69587 0.00133264 4.25867 0.234451C 4.82146 0.467568 5.30249 0.862343 5.64093 1.36885C 5.97936 1.87535 6.16 2.47083 6.16 3.08C 6.16 3.89687 5.8355 4.68028 5.25789 5.25789C 4.68028 5.8355 3.89687 6.16 3.08 6.16ZM 3.08 2.01C 2.86597 2.01001 2.65677 2.07361 2.47896 2.19273C 2.30114 2.31185 2.16273 2.48112 2.08129 2.67905C 1.99985 2.87697 1.97905 3.09464 2.02154 3.3044C 2.06403 3.51417 2.16789 3.70658 2.31993 3.85722C 2.47198 4.00785 2.66535 4.10992 2.8755 4.15045C 3.08565 4.19099 3.30311 4.16817 3.50027 4.08489C 3.69744 4.00161 3.86541 3.86163 3.98287 3.68272C 4.10033 3.5038 4.16198 3.29402 4.16 3.08C 4.16001 2.93864 4.132 2.79868 4.07761 2.66821C 4.02321 2.53773 3.9435 2.41933 3.84308 2.31984C 3.74266 2.22035 3.62352 2.14174 3.49254 2.08856C 3.36157 2.03538 3.22136 2.00868 3.08 2.01Z" transform="translate(27.3705 33.006)" fill="#43AFA8"/>
</g>
<g id="Vector_6">
<path d="M 3.08998 6.15999C 2.47997 6.16196 1.88311 5.98275 1.37508 5.64508C 0.867043 5.30741 0.470723 4.82648 0.236366 4.26328C 0.00200981 3.70007 -0.0598268 3.07996 0.0586967 2.48157C 0.17722 1.88318 0.470766 1.33346 0.902113 0.902112C 1.33346 0.470765 1.88318 0.177221 2.48157 0.0586972C 3.07996 -0.0598262 3.70007 0.00201033 4.26328 0.236367C 4.82648 0.470723 5.30741 0.867044 5.64508 1.37508C 5.98275 1.88311 6.16196 2.47997 6.15998 3.08999C 6.15735 3.90339 5.83306 4.68272 5.25789 5.25789C 4.68272 5.83306 3.90339 6.15735 3.08998 6.15999ZM 3.08998 2.00998C 2.87597 2.008 2.66618 2.06965 2.48727 2.18712C 2.30835 2.30458 2.16837 2.47255 2.08509 2.66971C 2.00182 2.86687 1.979 3.08433 2.01953 3.29449C 2.06007 3.50464 2.16213 3.69801 2.31277 3.85005C 2.4634 4.0021 2.65582 4.10595 2.86558 4.14844C 3.07535 4.19093 3.29301 4.17014 3.49094 4.0887C 3.68887 4.00726 3.85813 3.86884 3.97725 3.69103C 4.09637 3.51321 4.15998 3.30401 4.15998 3.08999C 4.1613 2.94816 4.13467 2.80746 4.08161 2.67592C 4.02855 2.54438 3.95011 2.42459 3.85075 2.32337C 3.75139 2.22215 3.63306 2.1415 3.50253 2.08601C 3.372 2.03052 3.23181 2.00129 3.08998 1.99999L 3.08998 2.00998Z" transform="translate(20.4005 40.016)" fill="#8ACC49"/>
</g>
<g id="Vector_7">
<path d="M 39.0905 29.536L 36.0905 29.536C 35.8252 29.536 35.5709 29.4306 35.3834 29.2431C 35.1958 29.0555 35.0905 28.8012 35.0905 28.536C 35.0905 28.2708 35.1958 28.0164 35.3834 27.8289C 35.5709 27.6413 35.8252 27.536 36.0905 27.536L 39.0905 27.536C 41.023 27.4652 42.8528 26.6478 44.195 25.2555C 45.5372 23.8633 46.2872 22.0048 46.2872 20.071C 46.2872 18.1371 45.5372 16.2786 44.195 14.8864C 42.8528 13.4942 41.023 12.6767 39.0905 12.606C 38.8369 12.6066 38.5926 12.5109 38.407 12.3382C 38.2214 12.1656 38.1082 11.9289 38.0905 11.676C 37.9349 9.16098 36.8646 6.7898 35.0813 5.00956C 33.298 3.22931 30.925 2.16302 28.4097 2.01173C 25.8945 1.86045 23.4108 2.63463 21.427 4.1883C 19.4432 5.74197 18.0964 7.96776 17.6405 10.446C 17.5958 10.6771 17.471 10.885 17.2881 11.0332C 17.1051 11.1814 16.8758 11.2602 16.6405 11.256C 14.8354 11.1753 13.0548 11.6976 11.5792 12.7405C 10.1036 13.7833 9.01697 15.2875 8.49046 17.016C 8.42445 17.2267 8.29055 17.4096 8.10966 17.5362C 7.92876 17.6629 7.71104 17.7261 7.49046 17.716L 7.04046 17.716C 5.73825 17.716 4.48937 18.2333 3.56857 19.1541C 2.64777 20.0749 2.13046 21.3238 2.13046 22.626C 2.13046 23.9282 2.64777 25.1771 3.56857 26.0979C 4.48937 27.0187 5.73825 27.536 7.04046 27.536L 11.3605 27.536C 11.6257 27.536 11.88 27.6413 12.0676 27.8289C 12.2551 28.0164 12.3605 28.2708 12.3605 28.536C 12.3605 28.8012 12.2551 29.0555 12.0676 29.2431C 11.88 29.4306 11.6257 29.536 11.3605 29.536L 6.99046 29.536C 5.15782 29.5572 3.3918 28.8495 2.08092 27.5686C 0.770045 26.2878 0.021681 24.5386 0.000463693 22.706C -0.0207536 20.8733 0.686914 19.1073 1.96779 17.7964C 3.24866 16.4855 4.99782 15.7372 6.83046 15.716C 7.53365 13.8765 8.76128 12.2838 10.3611 11.1355C 11.961 9.98716 13.8627 9.33364 15.8305 9.25597C 16.5409 6.48921 18.1907 4.0553 20.4975 2.37064C 22.8044 0.685988 25.6249 -0.144708 28.4767 0.020677C 31.3284 0.186062 34.034 1.33725 36.1307 3.27729C 38.2273 5.21732 39.5846 7.82563 39.9705 10.656C 42.3948 10.8796 44.6395 12.0293 46.2378 13.8659C 47.836 15.7024 48.6646 18.0845 48.5513 20.5164C 48.4379 22.9484 47.3913 25.243 45.6292 26.923C 43.867 28.6029 41.5251 29.5388 39.0905 29.536Z" fill="#43AFA8"/>
</g>
</g>
</g>
</g>
</g>
</svg>

